<svg xmlns="http://www.w3.org/2000/svg" viewBox="0 0 28 28"><defs><style>.cls-1{fill:#6dbd48;}.cls-2{fill:#fff;}</style></defs><title>Facebook </title><g id="Layer_2" data-name="Layer 2"><g id="Layer_1-2" data-name="Layer 1"><circle class="cls-1" cx="14" cy="14" r="14"/><path class="cls-2" d="M17.5,7H15.68a3.18,3.18,0,0,0-3.35,3.45V12H10.5a.28.28,0,0,0-.28.29v2.3a.28.28,0,0,0,.28.29h1.83v5.8a.28.28,0,0,0,.28.29H15a.29.29,0,0,0,.29-.29v-5.8h2.13a.29.29,0,0,0,.29-.29v-2.3a.3.3,0,0,0-.08-.2.29.29,0,0,0-.21-.09H15.28V10.69c0-.65.15-1,1-1H17.5a.28.28,0,0,0,.28-.28V7.29A.28.28,0,0,0,17.5,7Z"/></g></g></svg>