<svg xmlns="http://www.w3.org/2000/svg" viewBox="0 0 28 28"><defs><style>.cls-1{fill:#6dbd48;}.cls-2{fill:#fff;}</style></defs><title>Linkedin</title><g id="Layer_2" data-name="Layer 2"><g id="Layer_1-2" data-name="Layer 1"><circle class="cls-1" cx="14" cy="14" r="14"/><path id="LinkedIn" class="cls-2" d="M21.23,15.56v5.35h-3.1v-5c0-1.25-.45-2.11-1.57-2.11A1.69,1.69,0,0,0,15,15a2.13,2.13,0,0,0-.1.75v5.21h-3.1s0-8.45,0-9.32h3.1v1.32l0,0h0v0a3.05,3.05,0,0,1,2.79-1.54C19.7,11.37,21.23,12.7,21.23,15.56ZM8.53,7.09a1.62,1.62,0,1,0,0,3.23h0a1.62,1.62,0,1,0,0-3.23ZM7,20.91h3.1V11.59H7Z"/></g></g></svg>