<?xml version="1.0" encoding="utf-8"?>
<svg viewBox="0 0 500 500" xmlns="http://www.w3.org/2000/svg">
  <path d="M 249.419 0.741 C 111.25 0.741 -0.389 112.315 -0.389 249.931 C -0.389 355.558 65.404 445.802 158.334 482.104 C 156.076 462.415 154.229 432.058 159.16 410.523 C 163.685 391.037 188.356 286.645 188.356 286.645 C 188.356 286.645 180.953 271.676 180.953 249.728 C 180.953 215.064 201.1 189.224 226.187 189.224 C 247.568 189.224 257.851 205.222 257.851 224.295 C 257.851 245.626 244.282 277.623 237.082 307.358 C 231.12 332.176 249.623 352.481 274.098 352.481 C 318.504 352.481 352.634 305.718 352.634 238.447 C 352.634 178.762 309.664 137.13 248.183 137.13 C 177.05 137.13 135.307 190.251 135.307 245.215 C 135.307 266.542 143.536 289.514 153.812 302.029 C 155.871 304.486 156.076 306.743 155.456 309.205 C 153.606 317.001 149.288 334.023 148.468 337.508 C 147.439 342.021 144.764 343.048 140.036 340.788 C 109.197 326.025 89.871 280.496 89.871 243.983 C 89.871 165.435 147.028 93.239 254.973 93.239 C 341.532 93.239 408.966 154.77 408.966 237.217 C 408.966 323.154 354.692 392.268 279.436 392.268 C 254.148 392.268 230.3 379.146 222.278 363.553 C 222.278 363.553 209.737 411.139 206.654 422.826 C 201.1 444.57 185.886 471.643 175.609 488.255 C 199.046 495.43 223.719 499.33 249.623 499.33 C 387.586 499.33 499.436 387.757 499.436 250.139 C 499.233 112.315 387.381 0.741 249.419 0.741 Z" style="paint-order: stroke; fill: rgb(109, 189, 72);"/>
</svg>