<?xml version="1.0" encoding="UTF-8"?>
<svg id="Layer_2" data-name="Layer 2" xmlns="http://www.w3.org/2000/svg" viewBox="0 0 136 136">
  <defs>
    <style>
      .cls-1 {
        fill: #fff;
      }

      .cls-2 {
        fill: #6dbd48;
      }
    </style>
  </defs>
  <g id="Layer_1-2" data-name="Layer 1">
    <g>
      <circle class="cls-2" cx="68" cy="68" r="68"/>
      <g>
        <path class="cls-1" d="M34.02,59.07c-.04,2.93,0,5.85,0,8.89,.4-.16,.69-.29,.98-.43,3.02-1.34,6.12-1.58,9.32-.85,1.97,.45,3.62,1.56,5.39,2.41,1.16,.54,2.43,.94,3.69,1.14,2.66,.4,5.07-.43,7.33-1.85,3.29-2.05,6.88-2.57,10.68-1.77,2.1,.43,3.89,1.54,5.72,2.55,2.05,1.12,4.24,1.39,6.55,.98,1.77-.33,3.22-1.29,4.76-2.12,3.31-1.79,6.83-2.21,10.46-1.27,1.03,.27,2.01,.67,3.04,1.01v-8.07c0-2.01-.8-2.81-2.82-2.81h-30.6c-1.81,0-2.66-.85-2.66-2.66v-11.1h-13.83v10.92c0,2.06-.8,2.84-2.88,2.84h-12.71c-1.41,0-2.43,.87-2.44,2.19Z"/>
        <path class="cls-1" d="M100.81,72.37c-1.94-1.1-3.96-1.74-6.21-1.58-1.96,.13-3.62,.89-5.23,1.88-1.85,1.14-3.84,1.83-5.97,2.06-3.4,.36-6.52-.4-9.4-2.19-1.43-.91-2.95-1.56-4.67-1.74-2.57-.27-4.85,.51-7.02,1.85-3.42,2.1-7.13,2.63-11.06,1.79-2.06-.43-3.86-1.47-5.67-2.5-1.61-.92-3.39-1.25-5.25-1.18-2.12,.09-3.89,1-5.67,2.03-.49,.29-.67,.6-.65,1.18,.02,8.35,0,16.71,0,25.06,0,2.06,.8,2.86,2.86,2.86h62.3c2.01,0,2.81-.81,2.81-2.82,0-8.24-.02-16.46,.04-24.68,0-1.03-.33-1.54-1.19-2.03Z"/>
        <rect class="cls-1" x="47.58" y="34.1" width="22.76" height="4.42"/>
      </g>
    </g>
  </g>
</svg>