<?xml version="1.0" encoding="UTF-8"?>
<svg id="Layer_2" data-name="Layer 2" xmlns="http://www.w3.org/2000/svg" viewBox="0 0 136 136">
  <defs>
    <style>
      .cls-1 {
        fill: #fff;
      }

      .cls-2 {
        fill: #6dbd48;
      }
    </style>
  </defs>
  <g id="Layer_1-2" data-name="Layer 1">
    <g>
      <circle class="cls-2" cx="68" cy="68" r="68"/>
      <g id="Page-1">
        <g id="_007---Sweeping" data-name="007---Sweeping">
          <path id="Shape" class="cls-1" d="M65.44,76.12c1.65,1.02,3.57,1.5,5.5,1.39,1.85-.03,3.68-.34,5.43-.92-.64-2.52-2.43-4.58-4.84-5.57-1.55-.67-3.31-.65-4.85,.06-1.39,.77-2.46,2-3.03,3.48,.51,.61,1.11,1.14,1.79,1.57h0Z"/>
          <path id="Shape-2" data-name="Shape" class="cls-1" d="M73.25,90.21c.34-2.48,1.83-4.65,4.02-5.87-.05-1.69-.19-3.38-.42-5.05-2.04,.61-4.15,.92-6.28,.92-2.33,.04-4.62-.59-6.6-1.83-.59-.38-1.15-.82-1.66-1.31-2.99,4.73-11.11,13.2-31.81,16.33,.36,1.34,.99,2.6,1.86,3.69,4.2-.62,11.22-1.98,16.14-4.67,.42-.24,.94-.23,1.36,.02s.66,.71,.65,1.19-.29,.92-.72,1.15c-4.77,2.34-9.87,3.91-15.13,4.66,1.73,1.38,3.65,2.5,5.71,3.31,7.43-2.08,17.19-6.16,22.48-13.96,.42-.6,1.25-.75,1.86-.34s.77,1.24,.37,1.85c-4.9,7.21-13.14,11.45-20.34,13.91,.23,.06,.45,.13,.69,.19,2.69,.67,5.43,1.11,8.19,1.31,3.6-1.71,6.8-4.14,9.42-7.14,.48-.57,1.33-.65,1.9-.17s.65,1.33,.17,1.9c-1.77,2.09-3.83,3.91-6.12,5.42,3.94-.19,7.75-1.44,11.04-3.62-.99-1.35-1.52-2.98-1.52-4.65,.02-3.15,1.88-5.99,4.76-7.26h0Z"/>
          <path id="Shape-3" data-name="Shape" class="cls-1" d="M73.1,68.79l6.98-36.1c.2-.73-.03-1.51-.59-2.02s-1.36-.67-2.07-.4-1.21,.9-1.3,1.65l-6.95,35.93c1.13,.02,2.25,.24,3.31,.65,.21,.08,.41,.19,.61,.29h0Z"/>
          <path id="Shape-4" data-name="Shape" class="cls-1" d="M100.5,91.41c-.57-.08-1.03-.51-1.14-1.08-.55-2.87-2.7-5.17-5.53-5.91-2.83-.74-5.83,.21-7.72,2.45-.46,.55-1.28,.64-1.85,.2-.91-.69-2.02-1.07-3.17-1.06-2.86,.01-5.18,2.31-5.23,5.17,0,.59-.4,1.11-.96,1.28-1.95,.58-3.39,2.24-3.68,4.25-.3,2.01,.6,4.01,2.3,5.13,1.7,1.12,3.89,1.15,5.62,.08,.6-.37,1.38-.22,1.8,.35,1.57,2.16,4.05,3.49,6.72,3.58,2.67,.1,5.24-1.04,6.96-3.08,.44-.51,1.18-.62,1.75-.26,2.09,1.34,4.78,1.27,6.8-.17s2.95-3.97,2.36-6.37c-.59-2.41-2.59-4.21-5.04-4.56h0Zm-4.85,1.01c-.08,.02-.17,.02-.26,.02-.65,0-1.2-.46-1.32-1.09-.16-.83-.78-1.5-1.6-1.71-.82-.21-1.69,.06-2.24,.71-.48,.57-1.33,.64-1.9,.16s-.64-1.33-.16-1.9c1.22-1.44,3.15-2.06,4.98-1.58s3.21,1.96,3.57,3.81c.14,.73-.34,1.44-1.07,1.58h0Z"/>
          <circle id="Oval" class="cls-1" cx="102.34" cy="74.07" r="3.37"/>
          <circle id="Oval-2" data-name="Oval" class="cls-1" cx="93.59" cy="65.32" r="2.69"/>
          <path id="Shape-5" data-name="Shape" class="cls-1" d="M37.02,58.58c-.74,0-1.35-.6-1.35-1.35v-2.69c0-.74,.6-1.35,1.35-1.35s1.35,.6,1.35,1.35v2.69c0,.74-.6,1.35-1.35,1.35Z"/>
          <path id="Shape-6" data-name="Shape" class="cls-1" d="M37.02,66.67c-.74,0-1.35-.6-1.35-1.35v-2.69c0-.74,.6-1.35,1.35-1.35s1.35,.6,1.35,1.35v2.69c0,.74-.6,1.35-1.35,1.35Z"/>
          <path id="Shape-7" data-name="Shape" class="cls-1" d="M34.32,61.28h-2.69c-.74,0-1.35-.6-1.35-1.35s.6-1.35,1.35-1.35h2.69c.74,0,1.35,.6,1.35,1.35s-.6,1.35-1.35,1.35Z"/>
          <path id="Shape-8" data-name="Shape" class="cls-1" d="M42.4,61.28h-2.69c-.74,0-1.35-.6-1.35-1.35s.6-1.35,1.35-1.35h2.69c.74,0,1.35,.6,1.35,1.35s-.6,1.35-1.35,1.35Z"/>
          <path id="Shape-9" data-name="Shape" class="cls-1" d="M41.06,80.13c-.54,0-1.04-.33-1.24-.83-.21-.5-.09-1.08,.29-1.47l2.02-2.02c.53-.51,1.37-.5,1.89,.02s.53,1.36,.02,1.89l-2.02,2.02c-.25,.25-.6,.39-.95,.39Z"/>
          <path id="Shape-10" data-name="Shape" class="cls-1" d="M47.12,74.07c-.54,0-1.04-.33-1.24-.83-.21-.5-.09-1.08,.29-1.47l2.02-2.02c.53-.51,1.37-.5,1.89,.02s.53,1.36,.02,1.89l-2.02,2.02c-.25,.25-.6,.39-.95,.39Z"/>
          <path id="Shape-11" data-name="Shape" class="cls-1" d="M49.14,80.13c-.36,0-.7-.14-.95-.39l-2.02-2.02c-.51-.53-.5-1.37,.02-1.89s1.36-.53,1.89-.02l2.02,2.02c.39,.39,.5,.96,.29,1.47-.21,.5-.7,.83-1.24,.83Z"/>
          <path id="Shape-12" data-name="Shape" class="cls-1" d="M43.08,74.07c-.36,0-.7-.14-.95-.39l-2.02-2.02c-.51-.53-.5-1.37,.02-1.89s1.36-.53,1.89-.02l2.02,2.02c.39,.39,.5,.96,.29,1.47-.21,.5-.7,.83-1.24,.83h0Z"/>
          <path id="Shape-13" data-name="Shape" class="cls-1" d="M66.65,45.23c-.08,0-.16,0-.24-.02l-22.9-4.04c-.73-.13-1.22-.83-1.09-1.56s.83-1.22,1.56-1.09l22.9,4.04c.7,.11,1.19,.74,1.13,1.45s-.66,1.24-1.36,1.23h0Z"/>
          <path id="Shape-14" data-name="Shape" class="cls-1" d="M65.3,51.97c-.08,0-.16,0-.24-.02l-14.6-2.58c-.47-.08-.87-.41-1.03-.87-.16-.45-.08-.96,.23-1.33s.79-.54,1.27-.46l14.6,2.57c.7,.11,1.19,.74,1.13,1.45s-.66,1.24-1.36,1.23h0Z"/>
          <path id="Shape-15" data-name="Shape" class="cls-1" d="M63.96,58.58c-.08,0-.16,0-.24-.02l-17.64-3.12c-.73-.13-1.22-.83-1.09-1.56s.83-1.22,1.56-1.09l17.65,3.12c.69,.12,1.17,.75,1.11,1.45-.06,.7-.65,1.23-1.35,1.23Z"/>
        </g>
      </g>
    </g>
  </g>
</svg>