<svg xmlns="http://www.w3.org/2000/svg" viewBox="0 0 28 28"><defs><style>.cls-1{fill:#6dbd48;}.cls-2{fill:#fff;}</style></defs><title>Instagram</title><g id="Layer_2" data-name="Layer 2"><g id="Layer_1-2" data-name="Layer 1"><circle class="cls-1" cx="14" cy="14" r="14"/><path class="cls-2" d="M17.14,7H10.86A3.86,3.86,0,0,0,7,10.86v6.28A3.86,3.86,0,0,0,10.86,21h6.28A3.86,3.86,0,0,0,21,17.14V10.86A3.86,3.86,0,0,0,17.14,7Zm2.62,10.14a2.63,2.63,0,0,1-2.62,2.62H10.86a2.63,2.63,0,0,1-2.62-2.62V10.86a2.63,2.63,0,0,1,2.62-2.62h6.28a2.63,2.63,0,0,1,2.62,2.62v6.28Z"/><path class="cls-2" d="M14,10.39A3.61,3.61,0,1,0,17.61,14,3.61,3.61,0,0,0,14,10.39Zm0,6A2.37,2.37,0,1,1,16.37,14,2.38,2.38,0,0,1,14,16.37Z"/><path class="cls-2" d="M17.76,9.34a.93.93,0,0,0-.65.27.9.9,0,0,0-.26.64.88.88,0,0,0,.26.64.93.93,0,0,0,.65.27.91.91,0,0,0,.64-.27.89.89,0,0,0,.27-.64.92.92,0,0,0-.91-.91Z"/></g></g></svg>