<?xml version="1.0" encoding="utf-8"?>
<svg height="48" width="48" xmlns="http://www.w3.org/2000/svg">
  <path d="M 16.307 13.492 C 16.745 13.492 17.12 13.313 17.43 12.953 C 17.74 12.593 17.895 12.16 17.895 11.651 C 17.895 11.142 17.74 10.708 17.43 10.348 C 17.12 9.989 16.745 9.809 16.307 9.809 C 15.868 9.809 15.494 9.989 15.184 10.348 C 14.874 10.708 14.719 11.142 14.719 11.651 C 14.719 12.16 14.874 12.593 15.184 12.953 C 15.494 13.313 15.868 13.492 16.307 13.492 Z M 16.307 22.202 C 18.318 20.079 19.804 18.154 20.764 16.426 C 21.724 14.698 22.205 13.177 22.205 11.861 C 22.205 9.791 21.633 8.098 20.492 6.783 C 19.35 5.467 17.955 4.81 16.307 4.81 C 14.658 4.81 13.263 5.467 12.122 6.783 C 10.98 8.098 10.409 9.791 10.409 11.861 C 10.409 13.177 10.901 14.698 11.884 16.426 C 12.866 18.154 14.341 20.079 16.307 22.202 Z M 16.307 24.28 C 13.872 21.877 12.053 19.645 10.851 17.584 C 9.649 15.523 9.048 13.615 9.048 11.861 C 9.048 9.23 9.777 7.134 11.237 5.573 C 12.696 4.012 14.386 3.231 16.307 3.231 C 18.228 3.231 19.917 4.012 21.376 5.573 C 22.836 7.134 23.565 9.23 23.565 11.861 C 23.565 13.615 22.964 15.523 21.762 17.584 C 20.56 19.645 18.741 21.877 16.307 24.28 Z M 16.307 11.861 Z" style="fill: rgb(76, 175, 80);"/>
</svg>