<svg xmlns="http://www.w3.org/2000/svg" viewBox="0 0 270.96 61.32"><defs><style>.cls-1{isolation:isolate;}.cls-2{mix-blend-mode:multiply;}.cls-3,.cls-6{fill:#048242;}.cls-4{fill:#6dbd48;}.cls-5{fill:#231f20;}.cls-6{fill-rule:evenodd;}</style></defs><title>Logo</title><g class="cls-1"><g id="Layer_2" data-name="Layer 2"><g id="Layer_1-2" data-name="Layer 1"><g class="cls-2"><path class="cls-3" d="M253.71,44.34a11.92,11.92,0,0,1-1-4.76,15.1,15.1,0,0,1,.85-4.89,25.12,25.12,0,0,1,2-4.46c.4-.7.83-1.38,1.25-2.05s.89-1.32,1.33-2c1.79-2.59,3.65-5,5.13-7.62a23.11,23.11,0,0,0,1.88-4.07c.11-.36.23-.72.33-1.08l.28-1.12.2-1.15c.06-.38.1-.77.16-1.17a12.18,12.18,0,0,1,.48,4.82,17.07,17.07,0,0,1-1.18,4.79A28.55,28.55,0,0,1,263.3,24c-.2.35-.42.68-.63,1L262,26l-1.32,1.95a67.88,67.88,0,0,0-4.93,7.66,19.15,19.15,0,0,0-1.57,4.16c-.07.36-.16.73-.23,1.1s-.11.76-.15,1.14-.06.77-.09,1.16S253.73,43.93,253.71,44.34Z"/><path class="cls-4" d="M255.82,51.14a11.7,11.7,0,0,1-1-4.75,15.43,15.43,0,0,1,.84-4.9A26.1,26.1,0,0,1,257.74,37c.4-.71.83-1.38,1.26-2.06s.88-1.32,1.32-2c1.79-2.58,3.65-5,5.13-7.61a23.45,23.45,0,0,0,1.88-4.07c.11-.36.23-.72.34-1.09l.27-1.11.21-1.15c.05-.39.09-.78.15-1.18a12.44,12.44,0,0,1,.49,4.83,17.6,17.6,0,0,1-1.18,4.79,30,30,0,0,1-2.19,4.35l-.63,1-.65,1-1.33,2a66,66,0,0,0-4.92,7.66,18.47,18.47,0,0,0-1.57,4.16c-.08.36-.16.73-.23,1.1s-.11.75-.16,1.14-.06.76-.08,1.16S255.84,50.74,255.82,51.14Z"/><path class="cls-3" d="M257.94,58a11.91,11.91,0,0,1-1-4.75,15.12,15.12,0,0,1,.85-4.9,25.06,25.06,0,0,1,2.05-4.46c.4-.7.83-1.38,1.25-2.05s.88-1.32,1.33-2c1.79-2.58,3.64-5,5.13-7.62a23.07,23.07,0,0,0,1.87-4.07c.11-.36.23-.72.34-1.08l.27-1.12.21-1.14c.05-.39.09-.78.16-1.18a12.18,12.18,0,0,1,.48,4.82,17.22,17.22,0,0,1-1.18,4.8,30,30,0,0,1-2.19,4.35c-.2.34-.42.68-.63,1l-.65,1-1.33,1.95A67.38,67.38,0,0,0,260,49.21a19.07,19.07,0,0,0-1.57,4.15c-.07.37-.16.73-.23,1.11s-.11.75-.15,1.13-.07.77-.09,1.16S258,57.55,257.94,58Z"/><path class="cls-3" d="M255.81,24.65a8.36,8.36,0,0,0,.7-3.41,10.81,10.81,0,0,0-.61-3.52,17.2,17.2,0,0,0-1.47-3.2c-.28-.5-.59-1-.9-1.47s-.63-1-.95-1.41C251.3,9.78,250,8,248.9,6.17a16.45,16.45,0,0,1-1.35-2.92l-.24-.78-.2-.8L247,.85c0-.28-.06-.56-.11-.85a8.74,8.74,0,0,0-.34,3.46,12.29,12.29,0,0,0,.84,3.44A21.33,21.33,0,0,0,248.93,10c.14.24.3.48.45.73l.46.72,1,1.39a49.5,49.5,0,0,1,3.53,5.5,14.17,14.17,0,0,1,1.13,3c0,.26.11.52.16.79s.08.54.11.81.05.56.06.84S255.8,24.36,255.81,24.65Z"/><path class="cls-4" d="M254.29,29.54a8.58,8.58,0,0,0,.71-3.42,11.07,11.07,0,0,0-.61-3.51,18.6,18.6,0,0,0-1.47-3.2c-.29-.51-.6-1-.91-1.48l-.95-1.41c-1.28-1.85-2.61-3.6-3.68-5.46A17.28,17.28,0,0,1,246,8.13c-.07-.25-.16-.51-.24-.78l-.19-.8-.15-.82c0-.28-.07-.56-.11-.84A8.55,8.55,0,0,0,245,8.35a12.39,12.39,0,0,0,.85,3.44,21.17,21.17,0,0,0,1.57,3.12c.14.25.3.49.45.73l.47.72.95,1.4a47.23,47.23,0,0,1,3.53,5.5,13.26,13.26,0,0,1,1.13,3c.05.26.11.53.16.8l.12.81c0,.27,0,.55.06.83S254.28,29.25,254.29,29.54Z"/><path class="cls-3" d="M252.78,34.42a8.7,8.7,0,0,0,.7-3.41,11,11,0,0,0-.61-3.51,18.26,18.26,0,0,0-1.47-3.2c-.29-.51-.6-1-.9-1.48l-.95-1.41c-1.29-1.86-2.62-3.6-3.69-5.47A17.14,17.14,0,0,1,244.52,13c-.08-.26-.17-.52-.24-.78l-.2-.8-.15-.82c0-.28-.07-.56-.11-.85a9,9,0,0,0-.35,3.47,12.24,12.24,0,0,0,.85,3.43,21.29,21.29,0,0,0,1.57,3.13l.45.73.47.72.95,1.4a46.41,46.41,0,0,1,3.53,5.5,12.9,12.9,0,0,1,1.13,3c.06.26.12.52.17.79s.08.54.11.82,0,.55.06.83S252.76,34.13,252.78,34.42Z"/><path class="cls-5" d="M0,42.88V42.8A15,15,0,0,1,15.36,27.65c5.95,0,9.78,2.49,12.36,6.07l-6.07,4.71C20,36.35,18.07,35,15.28,35c-4.08,0-6.95,3.46-6.95,7.7v.09c0,4.37,2.87,7.78,7,7.78,3,0,4.83-1.41,6.57-3.54l6.08,4.33A14.68,14.68,0,0,1,15,58,14.8,14.8,0,0,1,0,42.88Z"/><path class="cls-5" d="M31.09,27H39V57.37H31.09Z"/><path class="cls-5" d="M43.41,27h8.25v5.83H43.41Zm.17,7.87h7.91V57.37H43.58Z"/><path class="cls-5" d="M55,46.21v-.08A11.71,11.71,0,0,1,67.06,34.39a10.64,10.64,0,0,1,9.61,5l-5.37,4a4.84,4.84,0,0,0-4.2-2.37c-2.54,0-4.41,2.25-4.41,5v.09c0,2.91,1.83,5.12,4.49,5.12,1.87,0,3.08-.88,4.33-2.33l5.29,3.83a11.18,11.18,0,0,1-10,5.16A11.62,11.62,0,0,1,55,46.21Z"/><path class="cls-5" d="M79.58,27h7.91v15.4l6.12-7.53h9l-7.82,9,8,13.49h-8.7l-4.54-7.66-2,2.37v5.29H79.58Z"/><path class="cls-5" d="M0,42.88V42.8A15,15,0,0,1,15.36,27.65c5.95,0,9.78,2.49,12.36,6.07l-6.07,4.71C20,36.35,18.07,35,15.28,35c-4.08,0-6.95,3.46-6.95,7.7v.09c0,4.37,2.87,7.78,7,7.78,3,0,4.83-1.41,6.57-3.54l6.08,4.33A14.68,14.68,0,0,1,15,58,14.8,14.8,0,0,1,0,42.88Z"/><path class="cls-5" d="M31.09,27H39V57.37H31.09Z"/><path class="cls-5" d="M43.41,27h8.25v5.83H43.41Zm.17,7.87h7.91V57.37H43.58Z"/><path class="cls-5" d="M55,46.21v-.08A11.71,11.71,0,0,1,67.06,34.39a10.64,10.64,0,0,1,9.61,5l-5.37,4a4.84,4.84,0,0,0-4.2-2.37c-2.54,0-4.41,2.25-4.41,5v.09c0,2.91,1.83,5.12,4.49,5.12,1.87,0,3.08-.88,4.33-2.33l5.29,3.83a11.18,11.18,0,0,1-10,5.16A11.62,11.62,0,0,1,55,46.21Z"/><path class="cls-5" d="M79.58,27h7.91v15.4l6.12-7.53h9l-7.82,9,8,13.49h-8.7l-4.54-7.66-2,2.37v5.29H79.58Z"/><path class="cls-4" d="M132.2,42.88V42.8a15,15,0,0,1,15.36-15.15c5.95,0,9.78,2.49,12.36,6.07l-6.08,4.71c-1.66-2.08-3.58-3.42-6.37-3.42-4.08,0-6.95,3.46-6.95,7.7v.09c0,4.37,2.87,7.78,6.95,7.78,3,0,4.83-1.41,6.58-3.54l6.08,4.33a15.34,15.34,0,0,1-27.93-8.49Z"/><path class="cls-4" d="M163.29,27h7.91V57.37h-7.91Z"/><path class="cls-4" d="M174.69,46.21v-.08c0-6.58,4.71-11.78,11.37-11.78,7.78,0,11.36,5.7,11.36,12.32,0,.5,0,1.08,0,1.62H182.31A4.66,4.66,0,0,0,187.18,52a6.81,6.81,0,0,0,5-2.29l4.37,3.62a11.8,11.8,0,0,1-9.78,4.58C179.69,57.91,174.69,53.2,174.69,46.21Zm15.32-2c-.29-2.5-1.75-4.08-3.91-4.08s-3.5,1.62-3.91,4.08Z"/><path class="cls-4" d="M199.67,50.92v-.09c0-4.66,3.54-7.07,8.82-7.07a17.34,17.34,0,0,1,5.42.87v-.37c0-2.34-1.46-3.67-4.5-3.67a15.85,15.85,0,0,0-6.2,1.25l-1.63-5.58a22.66,22.66,0,0,1,9.12-1.75c4,0,6.78,1,8.57,2.75s2.42,4,2.42,7.16V57.37h-7.83V55a8.51,8.51,0,0,1-6.62,2.83C203,57.87,199.67,55.41,199.67,50.92ZM214,49.21v-1a8.17,8.17,0,0,0-3.08-.58c-2.29,0-3.62,1.12-3.62,2.78v.09c0,1.54,1.16,2.45,2.78,2.45A3.62,3.62,0,0,0,214,49.21Z"/><path class="cls-4" d="M225.72,34.85h7.91V38a8.37,8.37,0,0,1,6.75-3.66c4.78,0,7.66,3.16,7.66,8.28V57.37h-7.91V45.17c0-2.46-1.29-3.79-3.17-3.79s-3.33,1.33-3.33,3.79v12.2h-7.91Z"/><path class="cls-6" d="M158.5,61.32A336.28,336.28,0,0,0,123.15,55c-4.09-.55-20.12-3.32-22.16-6-1.66-2.14-.36-4.79,2.25-5.57,4.43-1.32,23.66-6.53,28.19-10.56-4.9-2.42-18.3-2.88-23.32-3.25-1.25-.09-3.31-.22-5.1-.22,5.11,2.51,15.67,5.38,19,6.22-4.81-.38-22.49-1.9-24.91-5.71-3.51-5.5,10.63-6,13.11-6.21C116,23.33,139,24,138.47,33c-.36,6-13.42,10.9-23.46,13.94,2.52.5,5,1,7.26,1.63A307.09,307.09,0,0,1,158.5,61.32ZM100.66,28l-.13-.17v0Z"/></g></g></g></g></svg>