<svg xmlns="http://www.w3.org/2000/svg" viewBox="0 0 28 28"><defs><style>.cls-1{fill:#6dbd48;}.cls-2{fill:#fff;}</style></defs><title>Twitter</title><g id="Layer_2" data-name="Layer 2"><g id="Layer_1-2" data-name="Layer 1"><circle class="cls-1" cx="14" cy="14" r="14"/><path class="cls-2" d="M22,8.74a6,6,0,0,1-.8.3,3.68,3.68,0,0,0,.72-1.28.27.27,0,0,0-.09-.3.27.27,0,0,0-.3,0,6.49,6.49,0,0,1-1.88.75,3.59,3.59,0,0,0-6.07,3,9.17,9.17,0,0,1-6.3-3.34A.25.25,0,0,0,7,7.77a.3.3,0,0,0-.21.13A3.62,3.62,0,0,0,7.18,12a3.48,3.48,0,0,1-.48-.21.26.26,0,0,0-.27,0,.26.26,0,0,0-.13.23v0a3.62,3.62,0,0,0,1.75,3.09l-.27,0a.26.26,0,0,0-.25.08.25.25,0,0,0-.06.26,3.62,3.62,0,0,0,2.63,2.41,6.37,6.37,0,0,1-3.39,1A6.47,6.47,0,0,1,6,18.81a.27.27,0,0,0-.28.18.25.25,0,0,0,.1.31A9.63,9.63,0,0,0,11,20.84a9.29,9.29,0,0,0,7.21-3.17,10,10,0,0,0,2.5-6.54c0-.09,0-.19,0-.29a7,7,0,0,0,1.61-1.7.29.29,0,0,0,0-.33A.28.28,0,0,0,22,8.74Z"/></g></g></svg>